<?xml version="1.0" encoding="iso-8859-1"?>
<!-- Uploaded to: SVG Repo, www.svgrepo.com, Generator: SVG Repo Mixer Tools -->
<svg fill="#ff0000" height="90px" width="90px" version="1.1" id="Capa_1" xmlns="http://www.w3.org/2000/svg" xmlns:xlink="http://www.w3.org/1999/xlink" 
	 viewBox="0 0 490 490" xml:space="preserve">
<g>
	<path d="M460.968,141.771C460.968,63.596,397.911,0,320.409,0s-140.56,63.596-140.56,141.771c0,10.753,1.176,21.292,3.451,31.476
		h-74.015c-44.246,0-80.253,36.276-80.253,80.882v75.708c0,44.605,36.007,80.882,80.253,80.882h125.607L333.029,490v-82.616
		c33.615-9.944,57.555-41.181,57.555-77.547V264.85C432.681,240.322,460.968,194.23,460.968,141.771z M359.96,329.837
		c0,25.54-18.916,46.983-44.007,49.899l-13.547,1.57v44.575l-56.688-45.786H109.285c-27.364,0-49.629-22.549-49.629-50.258v-75.708
		c0-27.708,22.265-50.257,49.629-50.257h84.694c8.635,17.815,21.037,33.78,36.726,46.878v88.373l70.489-56.942
		c20.598,2.897,40.458,1.221,58.766-4.143V329.837z M320.409,252.933c-6.669,0-13.607-0.688-20.605-2.034l-6.983-1.331
		l-31.491,25.435v-39.327l-6.146-4.591c-28.411-21.263-44.71-53.816-44.71-89.315c0-61.293,49.316-111.147,109.936-111.147
		s109.936,49.854,109.936,111.147S381.029,252.933,320.409,252.933z"/>
	<g>
		<ellipse cx="257.399" cy="137.09" rx="20.54" ry="20.738"/>
	</g>
	<g>
		<ellipse cx="320.409" cy="137.09" rx="20.54" ry="20.738"/>
	</g>
	<g>
		<ellipse cx="383.419" cy="137.09" rx="20.54" ry="20.738"/>
	</g>
</g>
</svg>